<?xml version="1.0" encoding="UTF-8" standalone="no"?>
  <svg xmlns:dc="http://purl.org/dc/elements/1.1/" xmlns:cc="http://creativecommons.org/ns#" xmlns:rdf="http://www.w3.org/1999/02/22-rdf-syntax-ns#" xmlns:svg="http://www.w3.org/2000/svg" xmlns="http://www.w3.org/2000/svg" viewBox="0 0 377.95999 344.74667" height="377.95999"
  width="344.74667" xml:space="preserve" id="redsift-logo" version="1.1">
    <metadata id="metadata8">
      <rdf:RDF>
        <cc:Work rdf:about="">
          <dc:format>image/svg+xml</dc:format>
          <dc:type rdf:resource="http://purl.org/dc/dcmitype/StillImage" />
        </cc:Work>
      </rdf:RDF>
    </metadata>
    <defs id="defs6">
      <clipPath id="clipPath20" clipPathUnits="userSpaceOnUse">
        <path id="path18" d="M 0,2585.57 V 0 h 2834.66 v 2585.57 z" />
      </clipPath>
    </defs>
    <g transform="matrix(1.3333333,0,0,-1.3333333,0,344.74667)" id="g10">
      <g transform="scale(0.1)" id="g12">
        <g id="g14">
          <g clip-path="url(#clipPath20)" id="g16">
            <path id="redsift" style="fill:#ED1651;fill-opacity:1;fill-rule:nonzero;stroke:none" d="m 2834.66,448.441 v 78.719 h -404.72 v -78.719 h 157.99 V 0 h 88.71 v 448.441 z m -688.06,0 h 230.62 V 527.16 H 2057.95 V 0 h 88.65 v 227.801 h 190.74 v 78.687 H 2146.6 Z M 1867.96,0 h 88.64 v 527.16 h -88.64 z m -114.4,31.832 c 14.6,12.1485 22.28,28.3086 22.28,46.6875 V 227.969 c 0,18.672 -7.5,34.371 -22.28,46.691 l -17.08,14.262 c -13.96,11.648 -28.56,17.566 -43.39,17.566 h -170.14 c -9.76,0 -12.19,0.571 -11.95,0.383 -0.24,0.09 -1.82,0.801 -5.54,3.688 -1.27,1.011 -2.14,1.793 -2.66,2.281 -0.11,1.379 -0.29,3.922 -0.29,8.39 v 112.461 c 0,4.59 0.18,7.129 0.23,8.399 0.55,0.461 1.45,1.242 2.75,2.281 3.48,2.711 5.11,3.508 5.02,3.539 0.54,0.09 3.45,0.531 12.44,0.531 h 136.66 c 9.73,0 12.12,-0.562 11.97,-0.382 0.21,-0.09 1.82,-0.809 5.52,-3.719 1.33,-1.008 2.13,-1.758 2.66,-2.25 0.16,-1.352 0.28,-3.918 0.28,-8.399 v -27.929 h 88.71 v 42.879 c 0,18.668 -7.51,34.339 -22.29,46.66 l -17.1,14.281 c -14,11.656 -28.6,17.578 -43.43,17.578 h -189.3 c -14.77,0 -29.38,-5.922 -43.47,-17.578 l -17.06,-14.281 c -14.77,-12.321 -22.25,-28.02 -22.25,-46.66 V 301.32 c 0,-15.261 7,-28.961 20.02,-39.5 l 19.29,-16.449 c 14.07,-11.66 28.64,-17.57 43.47,-17.57 h 170.11 c 9.03,0 12.23,-0.199 11.97,-0.371 0.21,-0.121 1.76,-0.84 5.49,-3.731 1.3,-0.98 2.16,-1.758 2.7,-2.277 0.12,-1.391 0.3,-3.934 0.3,-8.371 V 93.4688 c 0,-4.5899 -0.18,-7.129 -0.3,-8.3985 -0.51,-0.4883 -1.37,-1.2383 -2.7,-2.3008 -3.41,-2.6601 -5.02,-3.5 -4.97,-3.5312 -0.64,-0.1172 -3.58,-0.5195 -12.49,-0.5195 h -150.89 c -9.58,0 -11.95,0.3828 -12.01,0.3828 -0.23,0.0781 -1.82,0.8398 -5.48,3.6992 -1.3,1 -2.14,1.7812 -2.69,2.2383 -0.11,1.3906 -0.26,3.9609 -0.26,8.4297 V 121.43 h -88.69 V 78.5195 c 0,-18.3789 7.69,-34.539 22.29,-46.6875 l 17.04,-14.2617 C 1460.07,5.94922 1474.67,0 1489.5,0 h 203.59 c 14.83,0 29.43,5.94922 43.39,17.5703 z m -452.5,42.6992 c 14.81,12.3282 22.31,25.6098 22.31,39.5778 v 298.922 c 0,13.969 -7.5,27.27 -22.31,39.59 l -67.87,56.59 c -13.16,11.891 -27.9,17.949 -43.86,17.949 H 911.516 V 0 h 277.814 c 15.99,0 30.76,6.05859 43.41,17.5703 z m -66.37,60.9178 c 0,-6.168 -6.46,-12.84 -11.9,-17.359 l -34.62,-28.8908 c -7.75,-7.039 -15.76,-10.4804 -24.45,-10.4804 H 1000.19 V 448.441 h 163.53 c 8.66,0 16.67,-3.441 24.9,-10.91 l 34.17,-28.449 c 5.44,-4.512 11.9,-11.203 11.9,-17.383 z M 471.488,0 h 347.77 V 78.7188 H 560.168 V 227.801 h 219.223 v 78.687 H 560.168 v 141.953 h 259.09 V 527.16 H 471.488 Z M 344.016,0 h 32.246 v 42.2188 c 0,17.3124 -1.774,23.2617 -3.696,27.1015 -2.925,5.8594 -8.957,10.9414 -20.921,17.6289 l -7.692,4.1602 c -9.098,5.1015 -11.25,7.1015 -11.469,7.2304 -0.199,0.211 -2.379,2.5392 -9.054,12.8982 l -58.989,91.653 h 13.391 c 14.719,0 28.801,5.379 42.016,16.168 l 17.789,14.953 c 15.222,12.769 22.961,28.988 22.961,48.058 v 166.571 c 0,18.668 -7.508,34.339 -22.282,46.66 l -17.086,14.281 c -14.007,11.629 -28.593,17.578 -43.398,17.578 L 0,527.16 V 0 H 88.6758 V 199.32 H 168.727 L 258.914,54.8594 c 7.723,-13.2188 17.82,-24.1211 29.969,-32.4102 L 302.359,13.25 C 314.062,5.17188 319.199,3 322.27,2.10938 326.875,0.671875 333.613,0 344.016,0 m -80.078,278.531 c -0.594,-0.121 -3.493,-0.519 -12.469,-0.519 H 88.6758 V 448.441 H 251.469 c 9.136,0 12.238,-0.722 11.992,-0.382 0.187,-0.09 1.773,-0.829 5.492,-3.719 1.301,-1.008 2.141,-1.758 2.672,-2.25 0.148,-1.352 0.289,-3.918 0.289,-8.399 V 292.762 c 0,-4.563 -0.141,-7.133 -0.258,-8.371 -0.535,-0.493 -1.375,-1.27 -2.703,-2.289 -3.473,-2.704 -5.105,-3.543 -5.015,-3.571"
            />
            <path id="R" style="fill:#ED1651;fill-opacity:1;fill-rule:nonzero;stroke:none" d="m 1848.36,2585.57 678.65,-905.93 -0.06,-0.05 0.21,-0.21 -679.98,-906.189 H 2155 l 679.63,906.189 -679.49,906.19 h -306.78" />
            <path id=">" style="fill:#ED1651;fill-opacity:1;fill-rule:nonzero;stroke:none" d="M 0,2585.57 V 773.191 H 246.031 V 2339.54 H 1105.02 L 609.902,1679.38 1289.54,773.191 h 250.61 l 184.5,245.969 h -312.1 l -495.167,660.22 494.717,659.64 0.45,0.34 -0.07,0.09 -184.38,246.12 H 0"
            />
          </g>
        </g>
      </g>
    </g>
  </svg>